<svg width="16" height="16" viewBox="0 0 16 16" fill="none" xmlns="http://www.w3.org/2000/svg">
<path d="M8.004 13.962L5.55067 6.41199H10.4573L8.004 13.962ZM8.004 13.962L2.112 6.41199H5.55067L8.004 13.962ZM2.112 6.41199L8.004 13.962L1.55067 9.27399C1.46396 9.21085 1.39947 9.1219 1.36641 9.01987C1.33336 8.91784 1.33345 8.80796 1.36667 8.70599L2.112 6.41199ZM2.112 6.41199L3.59 1.86399C3.60634 1.81281 3.63852 1.76815 3.6819 1.73646C3.72528 1.70478 3.77761 1.6877 3.83133 1.6877C3.88506 1.6877 3.93739 1.70478 3.98077 1.73646C4.02415 1.76815 4.05633 1.81281 4.07267 1.86399L5.55067 6.41199H2.112ZM8.004 13.962L10.4573 6.41199H13.8953L8.004 13.962ZM13.8953 6.41199L14.6413 8.70599C14.6745 8.80803 14.6745 8.91795 14.6413 9.01999C14.6081 9.12203 14.5435 9.21094 14.4567 9.27399L8.00333 13.962L13.8953 6.41199ZM13.8953 6.41199H10.4573L11.9347 1.86399C11.9508 1.81256 11.983 1.76763 12.0265 1.73574C12.0699 1.70384 12.1224 1.68665 12.1763 1.68665C12.2302 1.68665 12.2827 1.70384 12.3262 1.73574C12.3697 1.76763 12.4018 1.81256 12.418 1.86399L13.8953 6.41199Z" fill="black"/>
</svg>
