<svg width="15" height="15" viewBox="0 0 15 15" fill="none" xmlns="http://www.w3.org/2000/svg">
<path d="M13.5 13.251V5.10001L7.5 1.50001L1.5 5.10001V13.251H4.5V11.1885C4.5 10.3929 4.81607 9.6298 5.37868 9.06719C5.94129 8.50458 6.70435 8.18851 7.5 8.18851C8.29565 8.18851 9.05871 8.50458 9.62132 9.06719C10.1839 9.6298 10.5 10.3929 10.5 11.1885V13.251H13.5ZM9 14.751V11.1885C9 10.7907 8.84196 10.4092 8.56066 10.1279C8.27936 9.84655 7.89782 9.68851 7.5 9.68851C7.10218 9.68851 6.72064 9.84655 6.43934 10.1279C6.15804 10.4092 6 10.7907 6 11.1885V14.751H1.5C1.10218 14.751 0.720644 14.593 0.43934 14.3117C0.158035 14.0304 0 13.6488 0 13.251V5.10001C-2.49206e-06 4.84099 0.067073 4.58637 0.194695 4.36096C0.322317 4.13555 0.506135 3.94703 0.72825 3.81376L6.72825 0.213764C6.96137 0.0738881 7.22813 0 7.5 0C7.77187 0 8.03863 0.0738881 8.27175 0.213764L14.2717 3.81376C14.4939 3.94703 14.6777 4.13555 14.8053 4.36096C14.9329 4.58637 15 4.84099 15 5.10001V13.251C15 13.6488 14.842 14.0304 14.5607 14.3117C14.2794 14.593 13.8978 14.751 13.5 14.751H9Z" fill="#0B0000"/>
</svg>
