<svg width="16" height="16" viewBox="0 0 16 16" fill="none" xmlns="http://www.w3.org/2000/svg">
<g clip-path="url(#clip0_440_715)">
<path d="M3.33333 2.66669H6L7.33333 6.00002L5.66667 7.00002C6.38064 8.44771 7.55231 9.61938 9 10.3334L10 8.66669L13.3333 10V12.6667C13.3333 13.0203 13.1929 13.3594 12.9428 13.6095C12.6928 13.8595 12.3536 14 12 14C9.39951 13.842 6.94677 12.7377 5.10455 10.8955C3.26234 9.05325 2.15803 6.60051 2 4.00002C2 3.6464 2.14048 3.30726 2.39052 3.05721C2.64057 2.80716 2.97971 2.66669 3.33333 2.66669" stroke="black" stroke-width="1.3" stroke-linecap="round" stroke-linejoin="round"/>
<path d="M10 4.66669C10.3536 4.66669 10.6928 4.80716 10.9428 5.05721C11.1929 5.30726 11.3333 5.6464 11.3333 6.00002" stroke="black" stroke-width="1.3" stroke-linecap="round" stroke-linejoin="round"/>
<path d="M10 2C11.0609 2 12.0783 2.42143 12.8284 3.17157C13.5786 3.92172 14 4.93913 14 6" stroke="black" stroke-width="1.3" stroke-linecap="round" stroke-linejoin="round"/>
</g>
<defs>
<clipPath id="clip0_440_715">
<rect width="16" height="16" fill="white"/>
</clipPath>
</defs>
</svg>
