<svg width="18" height="18" viewBox="0 0 18 18" fill="none" xmlns="http://www.w3.org/2000/svg">
<g clip-path="url(#clip0_440_699)">
<path d="M3 9.75C4.33732 9.90893 5.58229 10.5132 6.53457 11.4654C7.48685 12.4177 8.09107 13.6627 8.25 15C8.91294 14.6178 9.46747 14.0729 9.86117 13.4167C10.2549 12.7605 10.4747 12.0148 10.5 11.25C11.7593 10.807 12.859 10.0005 13.66 8.93251C14.461 7.86452 14.9273 6.583 15 5.25C15 4.65326 14.7629 4.08097 14.341 3.65901C13.919 3.23705 13.3467 3 12.75 3C11.417 3.07268 10.1355 3.539 9.06749 4.33999C7.9995 5.14098 7.19301 6.24067 6.75 7.5C5.9852 7.52526 5.23947 7.74513 4.5833 8.13883C3.92713 8.53253 3.38219 9.08706 3 9.75" stroke="black" stroke-width="1.3" stroke-linecap="round" stroke-linejoin="round"/>
<path d="M5.24999 10.5C4.46942 10.9407 3.83824 11.6044 3.43736 12.4062C3.03649 13.2079 2.88419 14.1111 2.99999 15C3.88886 15.1158 4.79206 14.9635 5.59381 14.5626C6.39556 14.1618 7.05932 13.5306 7.49999 12.75" stroke="black" stroke-width="1.3" stroke-linecap="round" stroke-linejoin="round"/>
<path d="M11.25 7.5C11.6642 7.5 12 7.16421 12 6.75C12 6.33579 11.6642 6 11.25 6C10.8358 6 10.5 6.33579 10.5 6.75C10.5 7.16421 10.8358 7.5 11.25 7.5Z" stroke="black" stroke-width="1.3" stroke-linecap="round" stroke-linejoin="round"/>
</g>
<defs>
<clipPath id="clip0_440_699">
<rect width="18" height="18" fill="white"/>
</clipPath>
</defs>
</svg>
