<svg width="14" height="12" viewBox="0 0 14 12" fill="none" xmlns="http://www.w3.org/2000/svg">
<path d="M5.22674 12C4.82892 12 4.44739 11.842 4.16608 11.5607C3.88478 11.2794 3.72674 10.8978 3.72674 10.5C3.72674 10.1022 3.88478 9.72064 4.16608 9.43934C4.44739 9.15804 4.82892 9 5.22674 9C5.62457 9 6.0061 9.15804 6.2874 9.43934C6.56871 9.72064 6.72674 10.1022 6.72674 10.5C6.72674 10.8978 6.56871 11.2794 6.2874 11.5607C6.0061 11.842 5.62457 12 5.22674 12ZM10.4767 12C10.0789 12 9.69739 11.842 9.41608 11.5607C9.13478 11.2794 8.97674 10.8978 8.97674 10.5C8.97674 10.1022 9.13478 9.72064 9.41608 9.43934C9.69739 9.15804 10.0789 9 10.4767 9C10.8746 9 11.2561 9.15804 11.5374 9.43934C11.8187 9.72064 11.9767 10.1022 11.9767 10.5C11.9767 10.8978 11.8187 11.2794 11.5374 11.5607C11.2561 11.842 10.8746 12 10.4767 12ZM0.698241 1.44225C0.511012 1.43621 0.333472 1.35759 0.203164 1.22301C0.0728572 1.08843 0 0.908451 0 0.721125C0 0.533799 0.0728572 0.353816 0.203164 0.219238C0.333472 0.0846603 0.511012 0.00603886 0.698241 0L1.56149 0C2.23799 0 2.82299 0.4695 2.96999 1.1295L3.90974 5.361C4.05674 6.021 4.64174 6.4905 5.31824 6.4905H10.9522L12.0337 2.163H5.02499C4.83952 2.15454 4.66446 2.0749 4.5362 1.94066C4.40795 1.80642 4.33638 1.62791 4.33638 1.44225C4.33638 1.25659 4.40795 1.07808 4.5362 0.943836C4.66446 0.809596 4.83952 0.729963 5.02499 0.7215H12.0337C12.253 0.721435 12.4694 0.771359 12.6664 0.867476C12.8635 0.963592 13.036 1.10337 13.171 1.27619C13.3059 1.449 13.3996 1.65031 13.4451 1.8648C13.4905 2.07929 13.4865 2.30131 13.4332 2.514L12.3517 6.84C12.2738 7.15215 12.0937 7.42926 11.8401 7.62727C11.5865 7.82528 11.274 7.9328 10.9522 7.93275H5.31824C4.66184 7.93284 4.02503 7.70904 3.513 7.29833C3.00097 6.88761 2.64433 6.31454 2.50199 5.67375L1.56149 1.44225H0.698241Z" fill="black"/>
</svg>
