<svg width="16" height="16" viewBox="0 0 16 16" fill="none" xmlns="http://www.w3.org/2000/svg">
<path d="M5.14666 10.9707L6.32066 10.632L13.3893 3.47867C13.4451 3.42153 13.4761 3.34475 13.4758 3.26492C13.4754 3.18509 13.4436 3.10861 13.3873 3.052L12.964 2.624C12.9366 2.59589 12.904 2.57351 12.8679 2.55817C12.8318 2.54283 12.793 2.53483 12.7537 2.53465C12.7145 2.53446 12.6757 2.54209 12.6394 2.55709C12.6032 2.57208 12.5703 2.59415 12.5427 2.622L5.49266 9.75667L5.14599 10.97L5.14666 10.9707ZM13.802 1.776L14.2253 2.20467C14.8093 2.796 14.8147 3.75 14.236 4.33533L6.952 11.7073L4.44266 12.43C4.28946 12.4729 4.1255 12.4532 3.98677 12.3754C3.84804 12.2975 3.74586 12.1678 3.70266 12.0147C3.67052 11.9046 3.67005 11.7877 3.70133 11.6773L4.43133 9.11733L11.696 1.76467C11.8341 1.62557 11.9986 1.51537 12.1798 1.4405C12.3609 1.36563 12.5552 1.32758 12.7512 1.32857C12.9473 1.32956 13.1411 1.36958 13.3215 1.44628C13.5019 1.52299 13.6653 1.63485 13.802 1.77533V1.776ZM6.12266 2.54467C6.45333 2.54467 6.72133 2.816 6.72133 3.15067C6.72186 3.22978 6.70678 3.30822 6.67697 3.3815C6.64717 3.45478 6.6032 3.52147 6.5476 3.57775C6.492 3.63404 6.42585 3.67881 6.35294 3.7095C6.28003 3.7402 6.20177 3.75623 6.12266 3.75667H3.72799C3.06666 3.75667 2.53066 4.29933 2.53066 4.968V12.2387C2.53066 12.908 3.06666 13.4507 3.72799 13.4507H10.912C11.5733 13.4507 12.11 12.908 12.11 12.2387V9.81533C12.11 9.48067 12.378 9.20933 12.7087 9.20933C13.0393 9.20933 13.3073 9.48067 13.3073 9.816V12.2387C13.3073 13.5773 12.2347 14.6627 10.912 14.6627H3.72799C2.40533 14.6627 1.33333 13.5773 1.33333 12.2387V4.968C1.33333 3.63 2.40533 2.54467 3.72799 2.54467H6.12266V2.54467Z" fill="black"/>
</svg>
