<svg width="1340" height="277" viewBox="0 0 1340 277" fill="none" xmlns="http://www.w3.org/2000/svg">
<g style="mix-blend-mode:soft-light">
<path d="M-5.36618e-07 69.943V-7.15491e-06H205.267V69.5629C187.782 85.5281 174.224 101.113 164.594 116.318C154.457 132.283 146.602 152.81 141.026 177.898C134.944 203.24 131.903 234.157 131.903 270.649H42.9541C42.9541 230.863 50.6833 192.85 66.1417 156.611C81.8536 119.613 100.733 90.7232 122.78 69.943H-5.36618e-07ZM436.891 98.8325V-7.15491e-06H512.916V270.649H436.891V166.495H343.761V270.649H267.736V-7.15491e-06H343.761V98.8325H436.891ZM720.554 247.081C701.294 265.834 675.572 275.21 643.388 275.21C611.204 275.21 585.483 265.834 566.223 247.081C547.217 228.328 537.714 203.494 537.714 172.577C537.714 141.153 547.217 116.192 566.223 97.6921C584.976 79.1927 610.698 69.943 643.388 69.943C676.079 69.943 701.801 79.1927 720.554 97.6921C739.56 116.445 749.063 141.406 749.063 172.577C749.063 203.494 739.56 228.328 720.554 247.081ZM643.388 124.681C619.821 124.681 608.037 140.646 608.037 172.577C608.037 204.507 619.821 220.472 643.388 220.472C666.956 220.472 678.74 204.507 678.74 172.577C678.74 140.646 666.956 124.681 643.388 124.681ZM895.387 183.22V74.5045H965.33V270.649H896.908V244.8C881.196 265.074 860.796 275.21 835.708 275.21C815.434 275.21 799.089 268.875 786.672 256.204C774.254 243.28 768.045 225.034 768.045 201.466V74.5045H837.988V186.641C837.988 206.154 846.858 215.911 864.597 215.911C873.467 215.911 880.816 213.123 886.644 207.548C892.473 201.72 895.387 193.61 895.387 183.22ZM1116.86 71.4635C1122.18 71.4635 1126.87 71.8436 1130.93 72.6039V135.324H1112.68C1081.26 135.324 1065.54 152.557 1065.54 187.021V270.649H995.601V74.5045H1064.02V113.277C1070.87 85.4014 1088.48 71.4635 1116.86 71.4635ZM1241.17 276.731C1208.22 276.731 1183.9 271.409 1168.18 260.766C1152.73 250.122 1144.11 232.636 1142.33 208.308H1210C1211.01 217.178 1213.93 223.387 1218.74 226.935C1223.81 230.482 1231.79 232.256 1242.69 232.256C1261.19 232.256 1270.44 227.315 1270.44 217.431C1270.44 212.617 1268.28 208.942 1263.97 206.408C1259.67 203.62 1251.94 201.34 1240.79 199.566L1212.66 195.384C1167.3 188.795 1144.62 168.395 1144.62 134.184C1144.62 113.404 1152.6 97.5654 1168.56 86.6685C1184.78 75.5182 1208.22 69.943 1238.89 69.943C1299.71 69.943 1331.51 92.6238 1334.3 137.985H1270.06C1269.55 122.274 1259.16 114.418 1238.89 114.418C1221.65 114.418 1213.04 119.359 1213.04 129.242C1213.04 133.804 1214.81 137.225 1218.36 139.506C1222.16 141.787 1228.5 143.561 1237.37 144.828L1270.82 149.389C1294.38 152.684 1311.74 159.399 1322.89 169.536C1334.3 179.672 1340 193.737 1340 211.73C1340 232.51 1331.38 248.602 1314.15 260.005C1296.92 271.156 1272.59 276.731 1241.17 276.731Z" fill="url(#paint0_linear_42_52)" style="mix-blend-mode:soft-light"/>
</g>
<defs>
<linearGradient id="paint0_linear_42_52" x1="-5.70188" y1="128.102" x2="1344.74" y2="128.102" gradientUnits="userSpaceOnUse">
<stop/>
<stop offset="1" stop-opacity="0.2"/>
</linearGradient>
</defs>
</svg>
