<svg width="40" height="40" viewBox="0 0 40 40" fill="none" xmlns="http://www.w3.org/2000/svg">
<rect width="40" height="40" rx="20" fill="#FFE6E0"/>
<g clip-path="url(#clip0_100_653)">
<g clip-path="url(#clip1_100_653)">
<path d="M16.25 17.0049L18.4565 18.3094C19.7429 19.07 20.2571 19.07 21.5435 18.3094L23.75 17.0049" stroke="#FF8000" stroke-width="1.5" stroke-linecap="round" stroke-linejoin="round"/>
<path d="M12.5118 20.7366C12.5609 23.0358 12.5854 24.1853 13.4337 25.037C14.2821 25.8885 15.4628 25.9181 17.8241 25.9775C19.2795 26.0141 20.7205 26.0141 22.1759 25.9775C24.5373 25.9181 25.7179 25.8885 26.5663 25.037C27.4147 24.1853 27.4392 23.0358 27.4881 20.7366C27.504 19.9973 27.504 19.2625 27.4881 18.5232C27.4392 16.224 27.4147 15.0745 26.5663 14.2229C25.7179 13.3713 24.5373 13.3416 22.1759 13.2823C20.7205 13.2457 19.2795 13.2457 17.8241 13.2823C15.4628 13.3416 14.2821 13.3713 13.4337 14.2229C12.5854 15.0744 12.5609 16.224 12.5118 18.5232C12.4961 19.2625 12.4961 19.9973 12.5118 20.7366Z" stroke="#FF8000" stroke-width="1.5" stroke-linejoin="round"/>
</g>
</g>
<defs>
<clipPath id="clip0_100_653">
<rect width="18" height="18" fill="white" transform="translate(11 10.6299)"/>
</clipPath>
<clipPath id="clip1_100_653">
<rect width="18" height="18" fill="white" transform="translate(11 10.6299)"/>
</clipPath>
</defs>
</svg>
