<svg width="14" height="14" viewBox="0 0 14 14" fill="none" xmlns="http://www.w3.org/2000/svg">
<path d="M9.91666 1.94835C10.7965 2.45635 11.5284 3.18533 12.0399 4.06311C12.5514 4.9409 12.8248 5.93705 12.833 6.95297C12.8412 7.96888 12.5839 8.96932 12.0867 9.85526C11.5894 10.7412 10.8694 11.4819 9.99788 12.004C9.12638 12.5262 8.13362 12.8117 7.11788 12.8322C6.10214 12.8528 5.09864 12.6077 4.20673 12.1212C3.31482 11.6348 2.56541 10.9238 2.03271 10.0587C1.50001 9.19365 1.20248 8.20443 1.16957 7.18902L1.16666 7.00002L1.16957 6.81102C1.20224 5.8036 1.49539 4.82183 2.02045 3.96143C2.5455 3.10103 3.28454 2.39137 4.16551 1.90162C5.04648 1.41187 6.03933 1.15875 7.04724 1.16694C8.05516 1.17513 9.04376 1.44435 9.91666 1.94835ZM9.16241 5.42094C9.06196 5.3205 8.92832 5.26016 8.78655 5.25125C8.64479 5.24234 8.50464 5.28546 8.39241 5.37252L8.33757 5.42094L6.41666 7.34127L5.66241 6.5876L5.60757 6.53919C5.49533 6.45218 5.35521 6.40912 5.21348 6.41806C5.07175 6.427 4.93814 6.48734 4.83773 6.58775C4.73731 6.68817 4.67697 6.82177 4.66803 6.9635C4.65909 7.10524 4.70216 7.24536 4.78916 7.3576L4.83757 7.41244L6.00424 8.5791L6.05907 8.62752C6.16137 8.70689 6.28718 8.74997 6.41666 8.74997C6.54614 8.74997 6.67194 8.70689 6.77424 8.62752L6.82907 8.5791L9.16241 6.24577L9.21082 6.19094C9.29789 6.0787 9.34101 5.93855 9.33209 5.79679C9.32318 5.65502 9.26284 5.52138 9.16241 5.42094Z" fill="#FFEAD8"/>
</svg>
