<svg width="290" height="131" viewBox="0 0 290 131" fill="none" xmlns="http://www.w3.org/2000/svg">
<g filter="url(#filter0_d_81_415)">
<mask id="mask0_81_415" style="mask-type:alpha" maskUnits="userSpaceOnUse" x="35" y="26" width="230" height="60">
<path d="M35.4723 37.3139C35.7779 31.0095 41.0464 26.105 47.3582 26.0928C125.695 25.942 174.213 25.9973 252.6 26.1007C258.904 26.109 264.172 30.9968 264.493 37.292C265.18 50.7903 265.16 61.2786 264.484 74.5794C264.164 80.8694 258.911 85.7627 252.613 85.7858C174.201 86.0742 125.692 86.0688 47.3747 85.7853C41.0562 85.7624 35.7949 80.8383 35.4932 74.527C34.8496 61.0627 34.8289 50.5837 35.4723 37.3139Z" fill="#D9D9D9"/>
</mask>
<g mask="url(#mask0_81_415)">
<rect width="186.872" height="60.3743" transform="translate(78 26)" fill="black" fill-opacity="0.01"/>
<g filter="url(#filter2_ddi_81_415)">
<path d="M35.4723 37.3139C35.7779 31.0095 41.0464 26.105 47.3582 26.0928C125.695 25.942 174.213 25.9973 252.6 26.1007C258.904 26.109 264.172 30.9968 264.493 37.292C265.18 50.7903 265.16 61.2786 264.484 74.5794C264.164 80.8694 258.911 85.7627 252.613 85.7858C174.201 86.0742 125.692 86.0688 47.3747 85.7853C41.0562 85.7624 35.7949 80.8383 35.4932 74.527C34.8496 61.0627 34.8289 50.5837 35.4723 37.3139Z" fill="#FFC081"/>
</g>
<g filter="url(#filter3_f_81_415)">
<path d="M231.5 101.5C319.07 63.1024 195.78 12.5842 121.5 19.5L286.5 0V94.5L231.5 101.5Z" fill="#FF8000"/>
</g>
</g>
</g>
<defs>
<filter id="filter0_d_81_415" x="0" y="-15" width="311.5" height="161.5" filterUnits="userSpaceOnUse" color-interpolation-filters="sRGB">
<feFlood flood-opacity="0" result="BackgroundImageFix"/>
<feColorMatrix in="SourceAlpha" type="matrix" values="0 0 0 0 0 0 0 0 0 0 0 0 0 0 0 0 0 0 127 0" result="hardAlpha"/>
<feOffset dx="-5" dy="15"/>
<feGaussianBlur stdDeviation="15"/>
<feComposite in2="hardAlpha" operator="out"/>
<feColorMatrix type="matrix" values="0 0 0 0 0 0 0 0 0 0 0 0 0 0 0 0 0 0 0.3 0"/>
<feBlend mode="normal" in2="BackgroundImageFix" result="effect1_dropShadow_81_415"/>
<feBlend mode="normal" in="SourceGraphic" in2="effect1_dropShadow_81_415" result="shape"/>
</filter>
<filter id="filter2_ddi_81_415" x="6.5" y="13.5" width="287" height="117" filterUnits="userSpaceOnUse" color-interpolation-filters="sRGB">
<feFlood flood-opacity="0" result="BackgroundImageFix"/>
<feColorMatrix in="SourceAlpha" type="matrix" values="0 0 0 0 0 0 0 0 0 0 0 0 0 0 0 0 0 0 127 0" result="hardAlpha"/>
<feOffset dy="16"/>
<feGaussianBlur stdDeviation="14.25"/>
<feComposite in2="hardAlpha" operator="out"/>
<feColorMatrix type="matrix" values="0 0 0 0 0 0 0 0 0 0 0 0 0 0 0 0 0 0 0.05 0"/>
<feBlend mode="normal" in2="BackgroundImageFix" result="effect1_dropShadow_81_415"/>
<feColorMatrix in="SourceAlpha" type="matrix" values="0 0 0 0 0 0 0 0 0 0 0 0 0 0 0 0 0 0 127 0" result="hardAlpha"/>
<feOffset dy="4"/>
<feGaussianBlur stdDeviation="2"/>
<feComposite in2="hardAlpha" operator="out"/>
<feColorMatrix type="matrix" values="0 0 0 0 0 0 0 0 0 0 0 0 0 0 0 0 0 0 0.25 0"/>
<feBlend mode="normal" in2="effect1_dropShadow_81_415" result="effect2_dropShadow_81_415"/>
<feBlend mode="normal" in="SourceGraphic" in2="effect2_dropShadow_81_415" result="shape"/>
<feColorMatrix in="SourceAlpha" type="matrix" values="0 0 0 0 0 0 0 0 0 0 0 0 0 0 0 0 0 0 127 0" result="hardAlpha"/>
<feOffset dx="-8" dy="1"/>
<feGaussianBlur stdDeviation="6.5"/>
<feComposite in2="hardAlpha" operator="arithmetic" k2="-1" k3="1"/>
<feColorMatrix type="matrix" values="0 0 0 0 1 0 0 0 0 0.5 0 0 0 0 0 0 0 0 1 0"/>
<feBlend mode="normal" in2="shape" result="effect3_innerShadow_81_415"/>
</filter>
<filter id="filter3_f_81_415" x="71.5" y="-50" width="265" height="201.5" filterUnits="userSpaceOnUse" color-interpolation-filters="sRGB">
<feFlood flood-opacity="0" result="BackgroundImageFix"/>
<feBlend mode="normal" in="SourceGraphic" in2="BackgroundImageFix" result="shape"/>
<feGaussianBlur stdDeviation="25" result="effect1_foregroundBlur_81_415"/>
</filter>
</defs>
</svg>
