<svg width="16" height="16" viewBox="0 0 16 16" fill="none" xmlns="http://www.w3.org/2000/svg">
<g clip-path="url(#clip0_0_14)">
<path d="M6.90723 12.781C6.86758 12.7642 6.83021 12.7433 6.79492 12.7195L6.79688 12.7214L6.90723 12.781ZM6.90723 12.781C6.92355 12.7879 6.94118 12.7911 6.95801 12.7966C6.94111 12.791 6.92349 12.7879 6.90723 12.781ZM0.907227 8.78101C0.867578 8.76424 0.830213 8.74327 0.794922 8.71948L0.796875 8.72144L0.907227 8.78101ZM0.907227 8.78101C0.923549 8.7879 0.941178 8.79106 0.958008 8.79663C0.941113 8.79104 0.923492 8.78789 0.907227 8.78101ZM14.9658 5.17944C14.9758 5.18147 14.9853 5.18577 14.9951 5.18823C14.9853 5.18576 14.9758 5.18147 14.9658 5.17944ZM10.1221 1.59839C10.1498 1.67167 10.167 1.7508 10.167 1.83374C10.167 1.75246 10.1503 1.67298 10.1221 1.59839ZM9.75684 1.21851C9.78254 1.22927 9.80612 1.24379 9.83008 1.25757C9.80598 1.24376 9.78242 1.22919 9.75684 1.21851Z" fill="black" stroke="black"/>
</g>
<defs>
<clipPath id="clip0_0_14">
<rect width="16" height="16" fill="white"/>
</clipPath>
</defs>
</svg>
