<svg width="22" height="22" viewBox="0 0 22 22" fill="none" xmlns="http://www.w3.org/2000/svg">
<path d="M11 11C9.99163 11 9.12843 10.641 8.41038 9.92291C7.69232 9.20486 7.33329 8.34166 7.33329 7.33333C7.33329 6.325 7.69232 5.4618 8.41038 4.74375C9.12843 4.02569 9.99163 3.66666 11 3.66666C12.0083 3.66666 12.8715 4.02569 13.5895 4.74375C14.3076 5.4618 14.6666 6.325 14.6666 7.33333C14.6666 8.34166 14.3076 9.20486 13.5895 9.92291C12.8715 10.641 12.0083 11 11 11ZM3.66663 16.5V15.7667C3.66663 15.2472 3.80046 14.7699 4.06813 14.3348C4.33579 13.8997 4.69085 13.5673 5.13329 13.3375C6.08051 12.8639 7.04301 12.5088 8.02079 12.2723C8.99857 12.0358 9.99163 11.9173 11 11.9167C12.0083 11.9161 13.0013 12.0346 13.9791 12.2723C14.9569 12.5101 15.9194 12.8651 16.8666 13.3375C17.3097 13.5667 17.665 13.8991 17.9327 14.3348C18.2004 14.7706 18.3339 15.2478 18.3333 15.7667V16.5C18.3333 17.0042 18.1539 17.4359 17.7952 17.7952C17.4365 18.1546 17.0047 18.3339 16.5 18.3333H5.49996C4.99579 18.3333 4.56435 18.154 4.20563 17.7952C3.8469 17.4365 3.66724 17.0048 3.66663 16.5ZM5.49996 16.5H16.5V15.7667C16.5 15.5986 16.4581 15.4458 16.3744 15.3083C16.2907 15.1708 16.1797 15.0639 16.0416 14.9875C15.2166 14.575 14.384 14.2658 13.5437 14.0598C12.7034 13.8539 11.8555 13.7506 11 13.75C10.1444 13.7494 9.29649 13.8527 8.45621 14.0598C7.61593 14.267 6.78329 14.5762 5.95829 14.9875C5.82079 15.0639 5.70988 15.1708 5.62554 15.3083C5.54121 15.4458 5.49935 15.5986 5.49996 15.7667V16.5ZM11 9.16666C11.5041 9.16666 11.9359 8.9873 12.2952 8.62858C12.6545 8.26986 12.8339 7.83811 12.8333 7.33333C12.8327 6.82855 12.6533 6.39711 12.2952 6.039C11.9371 5.68089 11.5053 5.50122 11 5.5C10.4946 5.49878 10.0631 5.67844 9.70563 6.039C9.34813 6.39955 9.16846 6.831 9.16663 7.33333C9.16479 7.83566 9.34446 8.26741 9.70563 8.62858C10.0668 8.98975 10.4982 9.16911 11 9.16666Z" fill="black"/>
</svg>
