<svg width="20" height="20" viewBox="0 0 20 20" fill="none" xmlns="http://www.w3.org/2000/svg">
<path d="M16.3016 5.83333C16.3464 5.57795 16.3347 5.31586 16.2674 5.06547C16.2001 4.81508 16.0788 4.58246 15.912 4.38393C15.7453 4.1854 15.5371 4.02577 15.3021 3.91626C15.067 3.80675 14.8109 3.75 14.5516 3.75H5.4483C5.18902 3.75 4.93289 3.80675 4.69787 3.91626C4.46286 4.02577 4.25466 4.1854 4.0879 4.38393C3.92113 4.58246 3.79984 4.81508 3.73253 5.06547C3.66523 5.31586 3.65354 5.57795 3.6983 5.83333M14.5833 3.75C14.6066 3.53333 14.6191 3.42583 14.6191 3.33666C14.62 2.92474 14.4684 2.52708 14.1934 2.22038C13.9184 1.91369 13.5395 1.7197 13.13 1.67583C13.0416 1.66666 12.9333 1.66666 12.7166 1.66666H7.2833C7.06663 1.66666 6.95746 1.66666 6.86913 1.67583C6.45955 1.7197 6.08072 1.91369 5.80573 2.22038C5.53074 2.52708 5.37906 2.92474 5.37996 3.33666C5.37996 3.42583 5.39163 3.53416 5.4158 3.75" stroke="black" stroke-width="1.5"/>
<path d="M12.5 15H7.49999M17.6617 13.9942C17.37 16.0608 17.2242 17.095 16.4767 17.7142C15.7292 18.3333 14.6267 18.3333 12.4208 18.3333H7.57916C5.37416 18.3333 4.27082 18.3333 3.52332 17.7142C2.77582 17.095 2.62999 16.0617 2.33832 13.9942L1.98666 11.4942C1.61416 8.85749 1.42832 7.53999 2.21832 6.68583C3.00832 5.83333 4.41499 5.83333 7.22666 5.83333H12.7733C15.585 5.83333 16.9917 5.83333 17.7817 6.68666C18.405 7.36083 18.4208 8.32499 18.2158 9.99999" stroke="black" stroke-width="1.5" stroke-linecap="round"/>
</svg>
